<svg width="800" height="400" viewBox="0 0 800 400" fill="none" xmlns="http://www.w3.org/2000/svg">
  <rect width="800" height="400" rx="8" fill="#1A1A1A"/>
  <circle cx="400" cy="200" r="120" fill="#4D89FC" fill-opacity="0.2"/>
  <path d="M320 190C320 168.402 337.402 151 359 151H440C441.657 151 443 152.343 443 154V235C443 256.598 425.598 274 404 274H323C321.343 274 320 272.657 320 271V190Z" fill="#4D89FC"/>
  <path d="M348 186C348 184.895 348.895 184 350 184H413C414.105 184 415 184.895 415 186V249C415 250.105 414.105 251 413 251H350C348.895 251 348 250.105 348 249V186Z" fill="white"/>
  
  <rect x="480" y="130" width="240" height="30" rx="4" fill="#FFFFFF"/>
  <rect x="480" y="170" width="180" height="20" rx="4" fill="#AAAAAA"/>
  <rect x="480" y="200" width="200" height="20" rx="4" fill="#AAAAAA"/>
  <rect x="480" y="230" width="160" height="20" rx="4" fill="#AAAAAA"/>
  
  <rect x="120" y="184" width="140" height="16" rx="4" fill="#4D89FC"/>
  <rect x="120" y="216" width="120" height="16" rx="4" fill="#4D89FC"/>
  <rect x="120" y="248" width="130" height="16" rx="4" fill="#4D89FC"/>
</svg> 